<svg width="150" height="150" viewBox="0 0 150 150" fill="none" xmlns="http://www.w3.org/2000/svg" style="width: 501px; height: 501px;"><style>
     .contact17 {animation:contact17 3s infinite;}
     @keyframes contact17 {
         0%{transform: translate3d(0, -10px, 0);}
         50%{transform: translate3d(0, -2px, 0);}
         100%{transform: translate3d(0, -10px, 0);}
     }
     @media (prefers-reduced-motion: reduce) {
         .contact17 {
             animation: none;
         }
     }
    </style><path class="fillCls4" d="M41.7717 52.9659C41.7717 52.9659 43.5421 53.4953 43.9809 52.4629C44.4185 51.4314 42.855 50.4155 41.0056 50.2578C39.432 50.1235 39.0822 50.7211 38.9869 52.821C38.8916 54.9209 39.8846 60.9939 39.8846 60.9939L42.3083 62.8145L47.1882 57.6523L40.6971 55.6749L41.7717 52.9659Z" fill="#F28377" stroke-width="2px" style="animation-duration: 3s;"></path><path class="fillCls12" d="M56.0428 44.7402L56.2722 45.5829L47.7863 57.8885L40.6734 55.6513L40.459 54.8155L56.0428 44.7402Z" fill="#6F4DFB" stroke-width="2px" style="animation-duration: 3s;"></path><path class="fillCls12" d="M56.0371 44.7102L48.7737 43.272L40.4746 54.8196L47.5925 57.0217L56.0371 44.7102Z" fill="#6F4DFB" stroke-width="2px" style="animation-duration: 3s;"></path><path class="fillCls11" d="M53.525 45.4653L49.1216 44.5944C48.9185 44.5544 48.7104 44.6361 48.59 44.8045L42.9051 52.7136C42.6945 53.0075 42.8337 53.422 43.1785 53.5281L47.518 54.8701C47.7399 54.9382 47.9794 54.8545 48.111 54.6637L53.8586 46.2835C54.0742 45.9702 53.8987 45.5391 53.525 45.4653Z" fill="#83D2E9" stroke-width="2px" style="animation-duration: 3s;"></path><path class="fillCls6" d="M42.5687 63.9177L39.7263 58.7935L33.6628 61.7925C30.4756 58.7001 25.1092 53.5155 23.5683 52.158C21.3302 50.1875 17.4195 49.3468 12.7967 50.2596C8.17509 51.1732 2 55.0695 2 59.5875C2 63.3485 4.23809 102.429 4.23809 102.429C4.23809 102.429 7.54943 102.965 14.7978 99.5623C21.833 96.2597 32.4278 76.8731 32.4278 76.8731L34.6684 69.109L42.5687 63.9177Z" fill="#FFED94" stroke-width="2px" style="animation-duration: 3s;"></path><path class="fillCls4" d="M120.763 112.156L120.165 101.408L137.494 100.229L136.821 111.53L120.763 112.156Z" fill="#F28377" stroke-width="2px" style="animation-duration: 3s;"></path><path class="fillCls9" d="M138.237 113.476L147.443 113.892L142.896 79.5086C142.633 77.5138 141.46 75.7534 139.721 74.7428C138.635 74.1109 137.251 74.7353 137.005 75.9678L133.68 92.6449L131.469 94.0856C129.971 95.0598 129.782 97.2452 131.169 98.3737C131.22 98.415 131.272 98.4539 131.324 98.489C132.587 99.3667 134.104 99.7917 134.104 99.7917L135.394 110.827C135.563 112.287 136.767 113.41 138.237 113.476Z" fill="#8F8F8F" stroke-width="2px" style="animation-duration: 3s;"></path><path class="fillCls3" d="M144.057 113.725C144.057 113.725 142.172 110.192 141.596 104.042C141.019 97.8935 142.303 92.7402 142.123 87.1883C141.828 78.0279 139.428 74.5422 139.428 74.5422L140.351 75.0876C141.695 75.8813 142.599 77.2492 142.803 78.7965L147.443 113.892L144.057 113.725Z" fill="#000000" stroke-width="2px" style="animation-duration: 3s;"></path><path class="fillCls10" d="M133.21 91.5038C132.953 91.9427 133.016 92.4981 133.319 92.9044C133.886 93.6642 134.919 94.9644 135.497 95.1637C136.322 95.4496 136.88 94.9029 136.895 94.4277C136.91 93.9525 135.55 93.1476 134.67 91.8863C133.921 90.8142 133.467 91.0625 133.21 91.5038Z" fill="#EEEEEE" stroke-width="2px" style="animation-duration: 3s;"></path><path class="fillCls10" d="M134.104 87.7836C133.847 88.2225 133.911 88.7779 134.215 89.1841C134.781 89.944 135.815 91.2442 136.391 91.4435C137.218 91.7294 137.774 91.1827 137.791 90.7075C137.806 90.2323 136.445 89.4261 135.564 88.166C134.817 87.094 134.363 87.3435 134.104 87.7836Z" fill="#EEEEEE" stroke-width="2px" style="animation-duration: 3s;"></path><path class="fillCls10" d="M134.785 84.0988C134.528 84.5377 134.592 85.0944 134.895 85.5006C135.462 86.2604 136.495 87.5607 137.072 87.76C137.898 88.0446 138.455 87.498 138.471 87.024C138.488 86.5488 137.127 85.7426 136.246 84.4813C135.497 83.4105 135.043 83.6587 134.785 84.0988Z" fill="#EEEEEE" stroke-width="2px" style="animation-duration: 3s;"></path><path class="fillCls8" d="M127.866 114.736H22.6904L40.8307 95.9188H128.662L127.866 114.736Z" fill="#2E3716" stroke-width="2px" style="animation-duration: 3s;"></path><path class="fillCls4" d="M81.6318 97.5537L89.6676 92.4142L102.359 107.792L88.247 107.242L81.6318 97.5537Z" fill="#F28377" stroke-width="2px" style="animation-duration: 3s;"></path><path class="fillCls9" d="M84.6359 106.918L83.0234 116L117.684 115.974C119.695 115.971 121.592 115.038 122.821 113.445C123.588 112.449 123.15 110.995 121.96 110.59L105.869 105.115L104.732 102.733C103.961 101.121 101.821 100.648 100.522 101.878C100.475 101.922 100.43 101.968 100.388 102.016C99.3532 103.156 98.7339 104.604 98.7339 104.604L87.6312 104.445C86.1605 104.425 84.8929 105.472 84.6359 106.918Z" fill="#8F8F8F" stroke-width="2px" style="animation-duration: 3s;"></path><path class="fillCls3" d="M83.629 112.661C83.629 112.661 87.3767 111.252 93.5443 111.483C99.7118 111.712 104.651 113.657 110.176 114.203C119.292 115.106 123.057 113.178 123.057 113.178L122.396 114.024C121.434 115.253 119.962 115.971 118.403 115.971L83.0234 115.998L83.629 112.661Z" fill="#000000" stroke-width="2px" style="animation-duration: 3s;"></path><path class="fillCls10" d="M107.062 104.798C106.661 104.487 106.103 104.476 105.659 104.724C104.831 105.188 103.41 106.042 103.136 106.59C102.746 107.371 103.215 107.997 103.684 108.075C104.153 108.152 105.129 106.906 106.494 106.198C107.653 105.594 107.464 105.112 107.062 104.798Z" fill="#EEEEEE" stroke-width="2px" style="animation-duration: 3s;"></path><path class="fillCls10" d="M110.631 106.171C110.229 105.86 109.671 105.85 109.228 106.097C108.401 106.561 106.979 107.415 106.706 107.963C106.316 108.744 106.785 109.37 107.252 109.447C107.721 109.525 108.697 108.279 110.062 107.571C111.222 106.967 111.034 106.485 110.631 106.171Z" fill="#EEEEEE" stroke-width="2px" style="animation-duration: 3s;"></path><path class="fillCls10" d="M114.192 107.327C113.791 107.016 113.233 107.006 112.789 107.253C111.961 107.717 110.539 108.571 110.266 109.119C109.876 109.9 110.345 110.526 110.814 110.604C111.282 110.681 112.257 109.435 113.623 108.727C114.782 108.123 114.596 107.641 114.192 107.327Z" fill="#EEEEEE" stroke-width="2px" style="animation-duration: 3s;"></path><path class="fillCls7" d="M7.59863 102.223L46.1136 61.1395C50.3603 55.1891 60.3683 54.1665 64.6188 59.7033L92.8449 93.9164C92.8449 93.9164 89.4106 99.126 84.4468 101.676C79.4829 104.227 76.1414 103.565 76.1414 103.565L57.3078 78.8279C57.3078 78.8279 40.7999 103.442 36.2297 108.717C32.5635 112.951 25.5672 117.127 18.5997 113.373C11.8165 109.718 7.59863 102.223 7.59863 102.223Z" fill="#586035" stroke-width="2px" style="animation-duration: 3s;"></path><path class="fillCls4" d="M36.5381 69.2318L41.3152 61.4306C42.0273 60.2668 43.2486 59.5098 44.6065 59.391C47.4539 59.142 52.1582 58.8208 52.7262 59.3522C53.2892 59.8766 52.4554 60.621 52.4554 60.621C52.4554 60.621 52.9607 60.59 52.9795 61.3908C52.9945 61.9941 52.3551 62.2042 52.3551 62.2042C52.3551 62.2042 52.8328 62.4875 52.7964 63.0459C52.7525 63.6999 52.1244 63.8633 52.1244 63.8633C52.1244 63.8633 52.8629 64.1465 52.231 65.1381C51.7482 65.8942 45.0679 65.7365 45.0679 65.7365C45.0679 65.7365 44.219 67.5027 43.2661 69.4897C42.312 71.4768 40.6707 73.6584 40.6707 73.6584L36.5381 69.2318Z" fill="#F28377" stroke-width="2px" style="animation-duration: 3s;"></path><path class="fillCls3" d="M20.7547 40.3956C20.7547 40.3956 23.5344 40.0375 24.1901 38.1302C24.8471 36.223 23.3588 34.164 21.1158 34.0122C18.8727 33.8613 17.7116 35.1614 17.1612 35.2422C16.3675 35.3589 14.9043 34.4939 13.8787 35.3618C13.475 35.7033 13.401 36.3183 13.401 36.3183C13.401 36.3183 12.4869 36.0469 11.8713 36.9489C11.6306 37.3031 11.0965 37.9618 11.5341 39.7952C11.9716 41.6285 11.7309 42.8118 11.7108 43.4268C11.6745 44.5798 12.6775 45.2824 14.2273 45.1326C15.777 44.9846 20.7547 40.3956 20.7547 40.3956Z" fill="#000000" stroke-width="2px" style="animation-duration: 3s;"></path><path class="fillCls5" d="M13.7883 43.99L12.7539 50.9796C12.7539 50.9796 13.4372 52.0227 15.8095 51.8787C17.6538 51.7668 18.5779 50.0075 18.5779 50.0075L18.8475 46.5929L13.7883 43.99Z" fill="#E97367" stroke-width="2px" style="animation-duration: 3s;"></path><path class="fillCls4" d="M21.4993 38.8152C21.4993 38.8152 22.8823 45.1832 20.8097 46.7098C18.7384 48.2366 15.5098 46.7458 14.2271 45.1344C12.9457 43.524 13.3056 42.8642 13.703 42.4935C14.2284 42.0031 14.7951 42.4701 14.7951 42.4701C14.7951 42.4701 14.3086 39.512 15.5449 39.0167C16.7812 38.5213 21.4993 38.8152 21.4993 38.8152Z" fill="#F28377" stroke-width="2px" style="animation-duration: 3s;"></path><path class="fillCls2" d="M17.8913 42.1907C18.1095 42.1907 18.2875 42.0134 18.2875 41.7948C18.2875 41.576 18.1095 41.3987 17.8913 41.3987C17.6731 41.3987 17.4951 41.576 17.4951 41.7948C17.4951 42.0134 17.6731 42.1907 17.8913 42.1907Z" fill="#111111" stroke-width="2px" style="animation-duration: 3s;"></path><path class="fillCls2" d="M20.7319 42.1431C20.9513 42.1431 21.1281 41.9658 21.1281 41.7471C21.1281 41.5283 20.9513 41.351 20.7319 41.351C20.5137 41.351 20.3369 41.5283 20.3369 41.7471C20.3369 41.9658 20.5137 42.1431 20.7319 42.1431Z" fill="#111111" stroke-width="2px" style="animation-duration: 3s;"></path><path class="fillCls1" d="M19.8643 44.531C19.8643 44.531 19.5045 44.6508 19.0581 44.5903C18.6118 44.531 18.0312 44.1768 18.0312 44.1768C18.0312 44.1768 18.1441 44.9028 18.8976 45.071C19.4481 45.1947 19.8643 44.531 19.8643 44.531Z" fill="#FFFFFF" stroke-width="2px" style="animation-duration: 3s;"></path><path class="fillCls6" d="M38.0573 66.7202L21.5018 76.3703L15.6051 59.823C14.3024 56.1661 9.9955 54.5984 6.64905 56.5651C3.95207 58.1503 2.86125 61.5025 4.11131 64.3721C4.11131 64.3721 10.8732 84.0425 14.9957 89.5079C16.4677 91.4601 19.5985 91.0915 21.5269 89.5881L44.2249 71.8892L38.0573 66.7202Z" fill="#FFED94" stroke-width="2px" style="animation-duration: 3s;"></path><g class="contact17" style="animation-duration: 3s;"><path class="fillCls14" d="M124.045 25H71V54.1094H124.045V25Z" fill="#FAA949" stroke-width="2px"></path><path class="fillCls13" d="M92.6234 32H77V47.0127H92.6234V32Z" fill="#F7F7F7" stroke-width="2px"></path><path class="fillCls13" d="M95.9082 33.7754V32H117.87V33.7754H95.9082Z" fill="#F7F7F7" stroke-width="2px"></path><path class="fillCls13" d="M95.9082 37.9027V36.1273H117.87V37.9027H95.9082Z" fill="#F7F7F7" stroke-width="2px"></path><path class="fillCls13" d="M95.9082 42.0306V40.2551H112.627V42.0306H95.9082Z" fill="#F7F7F7" stroke-width="2px"></path><path class="fillCls13" d="M95.9082 45.7408V43.9654H104.805V45.7408H95.9082Z" fill="#F7F7F7" stroke-width="2px"></path><path class="fillCls14" d="M88.5714 42.059C89.674 41.16 90.3695 39.8029 90.3695 38.2762C90.3695 35.579 88.1812 33.3907 85.484 33.3907C82.7868 33.3907 80.5985 35.579 80.5985 38.2762C80.5985 38.344 80.5985 38.4288 80.5985 38.4967V39.1583L79.2754 41.8215L80.5985 42.2626V44.7053H83.7029L84.1439 47.1481H89.8267L88.5714 42.0421V42.059Z" fill="#FAA949" stroke-width="2px"></path></g></svg>